<svg version="1.2" xmlns="http://www.w3.org/2000/svg" viewBox="0 0 2048 2264" width="2048" height="2264"><style>.a{fill:#0491a8}</style><path fill-rule="evenodd" class="a" d="m1018 66c30.5 5.4 58.7 19.9 88 30 106.9 36.8 213.2 75.3 319.5 113.7 109.5 39.5 219.3 78.4 329 117.2 26.7 9.5 53.3 19.1 80 28.6 10.7 3.8 21.4 7.5 32 11.4 6 2.2 13.8 1.9 17.8 6.8 3.6 4.5 1.2 11.5 1.7 17.3 1.2 14.4 4.3 55.1 4.6 68 0.9 45.7 1.2 91.3 1.4 137 0.4 107.3 0.6 214.7 0.5 322-0.3 129 4 255.5-20.6 382-63.4 325.3-268 584.9-541.4 765.7-74.4 49.2-151.8 93.1-232.5 131.1-15.5 7.3-67.2 33-83.5 32.2-24.5-1.3-58.8-21.1-79.3-30.6-90.4-41.8-178.4-89.2-260.7-145.5-282.5-193.3-489-472.7-532-818.4-18.8-151.2-9.5-313.5-9.5-461 0-114.5 0.2-229 1-343.5 0.1-13.9 0.6-27.8 1.8-41.7 0.3-4-0.2-8.9 2.7-11.7 4.9-4.5 12.3-5.5 18.5-8 19.5-7.8 47.9-18.1 68-25.3 56.5-20.3 113.3-40 170-59.7 142.8-49.7 285.3-100.4 428-150.6 64.4-22.7 191.9-67.5 195-67zm-100 126.2c-32.9 11.6-66 22.7-99 34.1-129.6 44.8-259.1 90.2-388.5 135.7-51.5 18.2-103.1 35.9-154.5 54-10.7 3.8-21.5 7.5-32.2 11.4-7.3 2.6-20.7 0.4-21.7 8.1-7.2 52.5-1 106-1.1 159-0.1 113 0.1 226 0.5 339 0.4 111.2-3.9 219.2 13.6 328.5 27.6 172 100.6 336.8 211.2 471.5 70.3 85.6 153 158.3 242.2 223.6 72.1 52.7 149.9 97.9 230 137.2 22.8 11.2 46 21.6 69 32.2 1.8 0.9 25.8 12.2 28.7 12.5 3.2 0.3 6.1-2.1 9-3.4 11.2-5 74-35.1 80.8-38.4 77.1-37.8 151.4-83.1 221.5-132.7 153.8-108.8 287.7-249.5 373-418.5 30.2-59.7 52.9-123.1 70.4-187.5 12.6-46.3 20.4-92.9 26-140.5 1.7-14.3 4.3-28.6 4.8-43 3.2-95.7 1.2-315.2 0.9-390-0.3-76.7-0.8-153.4-1-230.1-0.1-39.8-0.1-119.5-0.1-119.5 0 0-40.4-13.5-60.5-20.4-90.3-30.9-180.2-62.9-270-95-111.2-39.7-222.1-80.3-333.5-119.5-30-10.5-59.7-21.7-89.5-33-8.8-3.3-17.7-6.7-26.5-10-2.2-0.9-4.2-2.5-6.5-2.5-1.9 0-64.6 25.7-97 37.2zm17.2 221c125.5 39.1 127.7 154 127.7 154l1.6 340.9c0 0 23.3-22 34.7-33.2 45-43.8 92.6-85 134.5-131.8 3.9-4.3-0.5-11.6-0.6-17.5-0.7-34.1 1.7-68.5-1.6-102.5-0.4-3.9-6.3-4.9-9.3-7.4-16.9-14.6-33.4-31.3-38.4-54.1-16.8-76.9 67.7-150.7 138.2-100.7 43 30.6 56.9 89.4 25.1 133.2-10.6 14.6-24 22.8-39.1 31.6-3 1.7-8.1 2.1-8.8 5.5-8.9 43.6 7.3 90.8-1.9 134.9-7.1 33.9-97.5 108.3-119.8 130-7.4 7.3-113.1 103.8-114 105.5-1.1 1.9-0.1 49.1 0.1 51.9 2.6-0.1 120.7-1 126.2-1.2 4.1-0.2 3.3-9.6 5.3-13.2 11.1-19 23.4-35.2 43-46.1 63.1-35.2 134.8 20.7 134.4 87.9-0.4 67.9-73.9 116.5-135.5 85.6-24.9-12.5-25.8-22.6-43-38.2-1.7-1.6-116.6 1.5-130 1.5-1.2 7.8-1.1 80.9-1.1 120.5 2.2 0 27.3 0.3 37 1.1 17.2 1.4 31.8-0.6 46 9.6 34.4 24.5 102.2 102.2 132.7 138.6 11.3 13.4 22.6 31 23.7 52.3 0.5 7.7 1.7 111.2 1.6 122.2 14.9 0 34.3 18 45.3 33.4 33.5 47.3 12.5 128.6-47.7 144.3-71.4 18.6-132.7-46.1-116.7-116.2 3.9-16.9 16-34.1 28.3-46 4.1-3.9 8.7-7.1 13.2-10.5 2.7-2 8-2.2 8.3-5.5 2.7-38.7 1.3-72.7 0-111.5-0.4-13.4-67.2-79.7-78.1-91.1-35.4-36.5-37.6-43.9-54.4-44.4-18.3-0.8-26.8-1.1-39-1.2-0.2 28.4 0.1 53.2 0.1 148.2-0.4 45.1 0.1 130.6 0.1 135.3-3.1 30.9-10.6 60.8-27.5 88.7-65 107-207.7 112.4-280.6 12.3-26.1-35.8-33.5-54.6-40.7-96.3-74.5 0.4-95.1-10.1-149.3-44.8-41.7-34.4-71.8-89.9-74.8-144.7-0.9-16.4-0.5-30.4-0.6-47.1 0-1.2-15.7-3.5-22.6-6.2-57.7-22.8-124.7-58.3-146.1-171.2-7.4-39-0.2-76.2 16.3-112.2 8.9-19.3 30.9-51.6 39.7-55.1-5.8-7.4-20.4-43-25.4-63.4-11-45.6-4.3-93.2 16.1-135.3 18.2-37.6 47.5-65.8 83.2-88.4 12.2-7.8 36.3-16.5 50.1-23.3 0-6.4 3.6-48.7 11.5-75.3 10.1-33.6 27.8-61.6 52.4-86.6 28.9-29.5 83.3-55.5 123.6-59.5 23.4-2.4 58.5 1.4 59.6 0 12.8-17.9 31.9-41 49.3-54.7 32.6-25.8 88.1-48.1 137.7-32.6zm-115.5 217.3c16.4 33.5 31.1 35.8 58.2 55.1 17.9 12.8 14.5 40.5-1.7 54.1-39.7 33.3-96.2-28.9-115.4-58.2-14.1-21.5-21.9-46.5-25.8-71.8-0.3-2.1-0.6-28.5-4-29.8-9.5-3.4-35.6 0.1-41 1.1-15.6 2.8-29.3 7.7-43 15.2-12.3 6.8-21.2 14.2-31 24.5-19.1 19.8-33.7 47.9-35.8 75.8-1.1 15.2 0.6 49.6-1.6 64-4.4 27.9-45.7 31.5-65.1 38.7-37.4 13.8-66 44.7-81 81-13 31.4-11.3 74.8 7.2 103.8 11.6 18.3 32.8 31.3 31.9 55.5-0.9 24.9-39.4 43.8-53.6 64.5-34.1 49.7-23.7 117.7 17.9 159.1 39.3 39.1 99 49.3 151.6 35.4 29.7-7.9 82.7-46 102.7-1 18.2 41-41.9 61.5-69.2 70.4-8 2.6-16.3 4.5-24.5 6.5-6.5 1.6-13 2.6-19.5 4-2.1 0.5-5.2-0.1-6.1 1.9-10.2 23.2-0.9 63.3 9.8 85.2 6.1 12.6 13.6 24.3 23.8 34 22.6 21.5 49.5 34.6 81 34.7 12 0 34.3-1.9 44-11.7 22-22.4 38.3-65.3 76.5-55.9 7.2 1.8 13.1 5.6 18.1 11.1 32.8 35.6-19.5 63.6-31.4 91.6-4.7 11-1.3 29 0.8 39.2 9.9 48.8 48.7 97.6 103.5 93.2 35.5-2.8 82.7-35.2 83-74.7 1.1-179.7 1.1-359.3 1-539-0.1-179.4 1.6-355.4-0.8-534.8-0.1-5.4-22-66.4-79.9-65.9-70.3 0.7-112.9 77.1-80.6 143.2zm444.3-124.5c-2.5 0.3-6.7 1.7-9.4 3-2.6 1.4-6.6 4.4-8.7 6.7-2.2 2.4-4.9 6.4-6.1 9-1.8 3.9-2.2 6.7-2.3 14.8 0 9.1 0.3 10.6 3 16.4 2 4.3 4.7 7.9 8 10.8 2.7 2.4 7 5 9.5 5.8 2.5 0.8 6.5 1.7 9 2 2.5 0.4 8.1 0.2 12.5-0.5 4.9-0.6 9.6-2 12-3.4 2.2-1.3 6-4.8 8.5-7.7 2.5-3 5.3-7.5 6.2-10.2 1.1-2.8 1.8-7.5 1.8-11.7 0-4.6-0.7-8.8-2-12.3-1.1-2.8-3.7-7.5-5.8-10.2-2.9-3.8-5.5-5.9-11.2-8.7-5.8-2.9-9-3.8-14-4.1-3.6-0.2-8.5-0.1-11 0.3zm221.2 208.1c21.8-0.6 45.1 28 55.8 38.9 31.7 32.2 59.1 66.1 82.2 105 38.3 64.3 57.5 141.7 58.5 216 0.6 52.2-3.2 105.7-20.2 155.5-15.4 45.1-37 86.3-64.8 125-19.1 26.5-41.6 50.1-65.7 72.1-11.2 10.3-26.3 24.9-42.8 25.4-27 0.8-42.5-29.1-33.5-52.5 3.3-8.6 20.9-21.8 24.3-24.8 24.1-21.8 28.2-24.1 48.5-49.2 50.8-62.7 81.8-141.8 85.7-222.5 4.3-89-26.9-180.5-80.3-251.5-22.5-30-55.2-54.5-75.5-85-3.1-4.7-3.8-10.8-4.2-16.5-1.5-19.7 28.7-35.9 32-35.9zm-97.2 135c18.5 0.2 27.4 12 40 24.6 13.8 13.8 27.3 28.4 38.7 44.3 46.9 65.1 68.4 150.2 48.2 229-6.9 26.8-17.7 52.5-31.4 76.5-13.8 24.1-30.7 46.2-50.2 66-10.1 10.3-20.9 23.4-36.8 23-20-0.5-33.8-13.7-34.6-33.5-0.2-5.5 1-15 4.6-20 10.6-14.6 24.3-26.6 35.6-40.6 31.1-38.4 52.9-83.5 52.9-133.7 0-45.7-14.5-90.1-43.7-125.7-9.1-11-25.5-27.5-34.9-38-5.5-6.2-12.5-14.5-15.6-22.5-6.8-17.7-2.9-34.3 12.7-45.4 4.9-3.4 11.6-4.1 14.5-4zm-653.5 23.2c6.7 0.2 10.1 0.8 13.5 2.4 2.5 1.2 6.5 4.1 8.9 6.5 2.4 2.4 5.4 6.1 6.7 8.3 1.3 2.2 3.2 6.7 4.4 10 1.1 3.3 2.5 11.2 3.1 17.5 1 11 0.9 12.1-2 26.7-1.7 8.4-4.2 19-5.5 23.5-1.3 4.6-4.3 13-6.6 18.8-2.3 5.8-6.3 14.5-8.9 19.5-2.6 4.9-5.6 10.5-6.7 12.4-1.1 1.9-1.5 3.5-0.9 3.7 0.5 0.2 3.8 2.1 7.2 4.1 3.4 2.1 11.5 9 18 15.3 6.6 6.3 15.8 16 20.7 21.5 4.8 5.5 11.6 14.3 15.1 19.5 3.5 5.2 9 14.7 12.2 21 3.2 6.3 7.7 16.7 10 23 2.3 6.3 5.8 18 7.8 26 1.9 8 3.6 14.6 3.8 14.8 0.1 0.1 5.6 0.9 12.2 1.6 6.6 0.8 14.9 1.7 18.5 2.1 3.6 0.4 9.4 1.3 13 2.1 3.6 0.8 8.7 2.7 11.4 4.2 2.7 1.5 6.2 4.2 7.7 5.9 1.6 1.8 4 5.4 5.3 8 1.3 2.7 2.9 7.3 3.6 10.3 0.7 3 1.1 8.7 0.8 12.5-0.3 5.1-1.2 8.7-3.5 13.5-2.1 4.4-4.8 8-8.4 11.3-3 2.6-6.9 5.4-8.7 6.2-2.4 1.1-7 1.5-18 1.5-8.1 0-20.1-0.5-26.7-1-6.6-0.6-17.6-1.9-24.5-3.1-6.9-1.1-16.8-3.4-22-5.2-5.2-1.7-11.5-4.5-14-6.3-2.5-1.7-6.2-5.3-8.2-8-2.1-2.7-4.6-7.4-5.7-10.4-1.1-3-3.2-11.8-4.6-19.5-1.5-7.7-4.2-19.2-6.1-25.5-1.9-6.4-6.3-17.3-9.9-24.5-3.5-7.2-9.2-16.6-12.5-21-3.3-4.4-9-11.3-12.7-15.4-3.8-4.1-10.4-10.2-14.8-13.6-4.4-3.5-11.5-8.4-15.8-11.1-4.3-2.7-9.1-5.7-10.5-6.6-2.7-1.7-2.9-1.7-11.7 2.8-5 2.4-13.7 6-19.5 7.8-5.8 1.9-14.8 4-20 4.6-5.2 0.7-13.8 1.2-19 1.2-5.2 0-11.8-0.6-14.5-1.2-2.8-0.6-7.2-2.3-9.9-3.8-2.7-1.5-6.7-4.7-8.9-7.2-2.3-2.5-5.2-7-6.6-10-1.7-3.9-2.6-7.9-2.9-13.5-0.5-7.3-0.2-8.6 2.4-14.5 1.7-3.6 5-8.7 7.4-11.4 2.5-2.7 6.5-6.2 9-7.8 2.5-1.5 7.6-3.5 11.5-4.3 3.8-0.8 13.7-2.2 22-3 11.5-1.3 16.3-2.2 20.5-4.2 3-1.3 8-4.4 11-6.7 3-2.4 8.6-7.7 12.5-11.8 4.4-4.7 9-11.1 12.5-17.4 3-5.4 7-13.7 8.9-18.4 1.8-4.7 4.4-12.8 5.7-18 1.4-5.2 2.8-14.9 3.4-21.5 0.5-6.6 1.6-14.3 2.6-17 0.9-2.8 2.4-6.6 3.4-8.5 1-1.9 2.9-4.9 4.2-6.5 1.4-1.7 4.9-4.6 7.9-6.6 3-2.1 7-4.2 8.9-4.8 1.9-0.6 7.5-0.9 12.5-0.8zm538 173.6c-1.7 0.4-5.3 1.9-8 3.3-2.8 1.4-6.9 4.5-9.3 6.9-2.4 2.4-5.2 6.2-6.3 8.4-1 2.2-2.3 6.7-2.8 10-0.5 3.3-0.6 9.2-0.2 13 0.5 4.8 1.7 8.7 3.7 12.4 1.6 2.9 4.9 7.2 7.4 9.4 2.5 2.3 7 5.2 10 6.5 4.8 2.2 6.6 2.4 14.5 2.1 7.1-0.3 10.1-1 14-2.9 2.7-1.4 7.1-4.5 9.6-7 2.5-2.5 5.7-6.8 7.1-9.5 1.5-2.8 3.2-7.9 3.8-11.5 1-5.4 0.9-7.5-0.4-12.8-0.9-3.4-2.7-8.3-4-11-1.3-2.6-4.3-6.5-6.7-8.6-2.4-2.2-6.9-5.1-9.9-6.4-3.7-1.7-7.8-2.6-12.5-2.8-3.8-0.2-8.3 0-10 0.5zm-6.5 582.3c-3 0.5-7.4 2-9.8 3.3-2.3 1.4-5.9 4.2-8 6.3-2 2.1-4.7 5.9-6 8.5-1.2 2.6-2.7 7.7-3.2 11.4-0.8 4.7-0.8 9 0 14 0.5 4 1.9 9 2.9 11 1.1 2.1 3.9 5.7 6.3 7.9 2.4 2.3 6.3 5.2 8.8 6.5 2.5 1.2 6.7 2.8 9.5 3.4 2.7 0.7 7.2 1.1 10 1 2.7-0.2 7.5-1.4 10.5-2.7 3-1.3 7.3-3.7 9.4-5.4 2.2-1.6 5.7-5.6 7.8-8.9 2.6-4.1 4.2-8.1 5-12.5 0.8-4.9 0.8-8.3 0-13.8-0.7-3.9-2.1-9-3.2-11.2-1.1-2.2-3.7-5.9-5.9-8.3-2.1-2.3-6-5.4-8.7-6.9-2.7-1.4-6.5-2.9-8.4-3.3-1.9-0.3-5.3-0.7-7.5-0.9-2.2-0.1-6.5 0.2-9.5 0.6z"/></svg>